# xmcd
#
# Track frame offsets:
#	150
#	11226
#	24653
#	34571
#	47282
#	60216
#	70210
#	82730
#	92499
#	104279
#	114221
#	126607
#	138029
#	148256
#
# Disc length: 2143 seconds
#
# Revision: 0
# Processed by: cddbd v1.5.2PL0 Copyright (c) Steve Scherf et al.
# Submitted via: audiograbber 1.83.01
#
DISCID=ac085d0e
DTITLE=Various Artist - Western
DYEAR=1900
DGENRE=Country
TTITLE0=Warren Smith - A Whole Lot Of Nothing
TTITLE1=The Blue Grass Gentlemen - Little Glass Of Wine
TTITLE2=Billy and Cliff - Louisiana Sand
TTITLE3=Gordon Terry - I Wish I´d Said That
TTITLE4=June Carter - Waving From The Hill
TTITLE5=Willie Nelson - There´s Gonna Be Love In My House
TTITLE6=The Carter Family - Bury Me Beneath The Willow
TTITLE7=The Three Wanderers - The Everroad Brothers
TTITLE8=The Blue Grass Gentlemen - Poor Little Ellen
TTITLE9=Ray Sanders - If I Can Slip Away
TTITLE10=June Carter - Overalls And Dungarees
TTITLE11=Warren Smith - Call Of The Wild
TTITLE12=Bob Wills And Tommy Duncan - After All
TTITLE13=Walter Brennan - The Green, Green Valley
EXTD=
EXTT0=
EXTT1=
EXTT2=
EXTT3=
EXTT4=
EXTT5=
EXTT6=
EXTT7=
EXTT8=
EXTT9=
EXTT10=
EXTT11=
EXTT12=
EXTT13=
PLAYORDER=
